<svg id="Layer_1" data-name="Layer 1" xmlns="http://www.w3.org/2000/svg" viewBox="0 0 126.16 35.38"><defs><style>.cls-1{fill:#fff;}.cls-2,.cls-3{fill:#00a99d;}.cls-2,.cls-3,.cls-4{stroke:#fff;stroke-miterlimit:10;}.cls-3,.cls-4{stroke-width:1.7px;}.cls-4{fill:none;}</style></defs><title>whiteLogo2</title><path class="cls-1" d="M54.64,41.33a0.67,0.67,0,0,1-.4.13,0.64,0.64,0,0,1-.39-0.13A0.8,0.8,0,0,1,53.57,41l-2.14-6.19L49.29,41a0.76,0.76,0,0,1-.27.38,0.69,0.69,0,0,1-.41.13,0.62,0.62,0,0,1-.39-0.13A0.67,0.67,0,0,1,48,41l-1.82-6.63a0.63,0.63,0,0,1,0-.16,0.37,0.37,0,0,1,.12-0.29,0.42,0.42,0,0,1,.29-0.11,0.44,0.44,0,0,1,.25.08,0.39,0.39,0,0,1,.15.24l1.71,6.52,2.09-6.13a1.41,1.41,0,0,1,.29-0.55,0.52,0.52,0,0,1,.37-0.15,0.53,0.53,0,0,1,.37.13,1.44,1.44,0,0,1,.29.56l2.09,6.13,1.71-6.52a0.38,0.38,0,0,1,.15-0.24,0.43,0.43,0,0,1,.25-0.08,0.42,0.42,0,0,1,.29.11,0.37,0.37,0,0,1,.12.29,0.52,0.52,0,0,1,0,.16L54.88,41A0.66,0.66,0,0,1,54.64,41.33Z" transform="translate(-3.51 -6.16)"/><path class="cls-1" d="M62.7,41.32a0.37,0.37,0,0,1-.13-0.3V34.2a0.38,0.38,0,0,1,.13-0.3A0.46,0.46,0,0,1,63,33.78a0.45,0.45,0,0,1,.3.11,0.38,0.38,0,0,1,.13.31V41a0.37,0.37,0,0,1-.13.3,0.48,0.48,0,0,1-.31.1A0.45,0.45,0,0,1,62.7,41.32Z" transform="translate(-3.51 -6.16)"/><path class="cls-1" d="M69.91,41.32a0.37,0.37,0,0,1-.13-0.3V34.2a0.4,0.4,0,0,1,.13-0.3,0.42,0.42,0,0,1,.31-0.12H72.5q0.35,0,.65,0a5.09,5.09,0,0,1,.62.1,2,2,0,0,1,.57.21,2.13,2.13,0,0,1,.45.34,1.33,1.33,0,0,1,.31.51,2.16,2.16,0,0,1,.11.7,1.7,1.7,0,0,1-.38,1.12,2,2,0,0,1-1.15.63v0a1.52,1.52,0,0,1,.93.53A2.23,2.23,0,0,1,75,39.11l0.21,1.84V41a0.41,0.41,0,0,1-.11.3,0.38,0.38,0,0,1-.28.12,0.52,0.52,0,0,1-.32-0.1,0.41,0.41,0,0,1-.16-0.3l-0.18-1.55q0-.37-0.09-0.61A2.18,2.18,0,0,0,74,38.43a1,1,0,0,0-.18-0.3,0.78,0.78,0,0,0-.27-0.18,1.37,1.37,0,0,0-.37-0.1l-0.5,0h-2V41a0.37,0.37,0,0,1-.13.3,0.49,0.49,0,0,1-.31.1A0.45,0.45,0,0,1,69.91,41.32Zm2.56-4.17a3.69,3.69,0,0,0,.71-0.06,2.09,2.09,0,0,0,.58-0.21,1,1,0,0,0,.42-0.44,1.52,1.52,0,0,0,.15-0.7,1.29,1.29,0,0,0-.12-0.57,1,1,0,0,0-.29-0.37,1.34,1.34,0,0,0-.43-0.21,2.36,2.36,0,0,0-.48-0.1l-0.49,0H70.65v2.68h1.82Z" transform="translate(-3.51 -6.16)"/><path class="cls-1" d="M81.34,41.3A0.39,0.39,0,0,1,81.21,41V34.2a0.42,0.42,0,0,1,.12-0.29,0.37,0.37,0,0,1,.29-0.13h4a0.37,0.37,0,0,1,.27.1,0.36,0.36,0,0,1,0,.49,0.37,0.37,0,0,1-.27.1H82.08v2.68h3.39a0.38,0.38,0,0,1,.28.1,0.33,0.33,0,0,1,.1.24,0.32,0.32,0,0,1-.1.24,0.38,0.38,0,0,1-.28.1H82.08v2.92h3.71a0.37,0.37,0,0,1,.27.1,0.33,0.33,0,0,1,.1.24,0.34,0.34,0,0,1-.1.25,0.36,0.36,0,0,1-.27.1H81.64A0.42,0.42,0,0,1,81.34,41.3Z" transform="translate(-3.51 -6.16)"/><path class="cls-1" d="M92.19,41.3a0.4,0.4,0,0,1-.13-0.3V34.19a0.37,0.37,0,0,1,.13-0.3,0.47,0.47,0,0,1,.31-0.11,0.45,0.45,0,0,1,.3.11,0.37,0.37,0,0,1,.13.3v6.55h3.54a0.37,0.37,0,0,1,.28.1,0.34,0.34,0,0,1,.1.25,0.34,0.34,0,0,1-.1.24,0.36,0.36,0,0,1-.27.1h-4A0.44,0.44,0,0,1,92.19,41.3Z" transform="translate(-3.51 -6.16)"/><path class="cls-1" d="M102.29,41.3a0.39,0.39,0,0,1-.13-0.29V34.2a0.42,0.42,0,0,1,.12-0.29,0.37,0.37,0,0,1,.29-0.13h4a0.36,0.36,0,0,1,.27.1,0.36,0.36,0,0,1,0,.49,0.37,0.37,0,0,1-.27.1H103v2.68h3.39a0.38,0.38,0,0,1,.28.1,0.33,0.33,0,0,1,.1.24,0.32,0.32,0,0,1-.1.24,0.38,0.38,0,0,1-.28.1H103v2.92h3.71a0.37,0.37,0,0,1,.27.1,0.33,0.33,0,0,1,.1.24,0.34,0.34,0,0,1-.1.25,0.36,0.36,0,0,1-.27.1h-4.15A0.42,0.42,0,0,1,102.29,41.3Z" transform="translate(-3.51 -6.16)"/><path class="cls-1" d="M112.9,40.59a0.17,0.17,0,0,1-.05-0.13A0.37,0.37,0,0,1,113,40.2a0.44,0.44,0,0,1,.29-0.13,0.2,0.2,0,0,1,.13,0,3.2,3.2,0,0,0,.89.52,3.12,3.12,0,0,0,1.17.21,2.4,2.4,0,0,0,1.34-.35,1.11,1.11,0,0,0,.53-1,1.59,1.59,0,0,0-.08-0.54,0.89,0.89,0,0,0-.27-0.39,1.92,1.92,0,0,0-.43-0.27,5.81,5.81,0,0,0-.63-0.24l-1.4-.47a3.15,3.15,0,0,1-1.26-.7,1.6,1.6,0,0,1-.43-1.18,1.67,1.67,0,0,1,.35-1,2.17,2.17,0,0,1,.94-0.69,3.55,3.55,0,0,1,1.32-.24,3.91,3.91,0,0,1,1.41.26,3.05,3.05,0,0,1,1,.58,0.31,0.31,0,0,1,.11.23,0.31,0.31,0,0,1-.11.23,0.34,0.34,0,0,1-.24.1,0.33,0.33,0,0,1-.21-0.08,3.65,3.65,0,0,0-.8-0.42,2.91,2.91,0,0,0-1.1-.2,2.33,2.33,0,0,0-1.35.35,1.07,1.07,0,0,0-.5.92,1,1,0,0,0,.3.75,2.67,2.67,0,0,0,1,.49l1.41,0.46a5.55,5.55,0,0,1,.74.3,2.75,2.75,0,0,1,.57.38,1.47,1.47,0,0,1,.39.55,2,2,0,0,1,.13.75,1.89,1.89,0,0,1-.74,1.61,3.32,3.32,0,0,1-2,.56A3.45,3.45,0,0,1,112.9,40.59Z" transform="translate(-3.51 -6.16)"/><path class="cls-1" d="M123.94,40.59a0.17,0.17,0,0,1-.05-0.13A0.37,0.37,0,0,1,124,40.2a0.44,0.44,0,0,1,.29-0.13,0.2,0.2,0,0,1,.13,0,3.2,3.2,0,0,0,.89.52,3.12,3.12,0,0,0,1.17.21,2.4,2.4,0,0,0,1.34-.35,1.11,1.11,0,0,0,.53-1,1.59,1.59,0,0,0-.08-0.54,0.89,0.89,0,0,0-.27-0.39,1.92,1.92,0,0,0-.43-0.27,5.81,5.81,0,0,0-.63-0.24l-1.4-.47a3.15,3.15,0,0,1-1.26-.7,1.6,1.6,0,0,1-.43-1.18,1.67,1.67,0,0,1,.35-1,2.17,2.17,0,0,1,.94-0.69,3.55,3.55,0,0,1,1.32-.24,3.91,3.91,0,0,1,1.41.26,3.05,3.05,0,0,1,1,.58,0.31,0.31,0,0,1,.11.23,0.31,0.31,0,0,1-.11.23,0.34,0.34,0,0,1-.24.1,0.33,0.33,0,0,1-.21-0.08,3.65,3.65,0,0,0-.8-0.42,2.91,2.91,0,0,0-1.1-.2,2.33,2.33,0,0,0-1.35.35,1.07,1.07,0,0,0-.5.92,1,1,0,0,0,.3.75,2.67,2.67,0,0,0,1,.49l1.41,0.46a5.55,5.55,0,0,1,.74.3,2.75,2.75,0,0,1,.57.38,1.47,1.47,0,0,1,.39.55,2,2,0,0,1,.13.75,1.89,1.89,0,0,1-.74,1.61,3.32,3.32,0,0,1-2,.56A3.45,3.45,0,0,1,123.94,40.59Z" transform="translate(-3.51 -6.16)"/><path class="cls-2" d="M107.22,8.39c-3.2,0-4.82,4.66-6.39,9.18s-3.14,9.05-6.27,9.05S89.85,22,88.3,17.56s-3.18-9.18-6.39-9.18V8.66c3.12,0,4.72,4.6,6.27,9.05s3.18,9.18,6.39,9.18,4.82-4.66,6.39-9.18,3.14-9.05,6.27-9.05V8.39Z" transform="translate(-3.51 -6.16)"/><path class="cls-2" d="M94.57,27.14c-3.31,0-5-4.74-6.55-9.32-1.52-4.38-3.09-8.91-6.1-8.91H81.74V8.14h0.18c3.32,0,5,4.74,6.55,9.32,1.52,4.38,3.09,8.91,6.1,8.91s4.58-4.53,6.1-8.91c1.59-4.58,3.24-9.32,6.55-9.32h0.18V8.91h-0.18c-3,0-4.58,4.53-6.1,8.91C99.53,22.41,97.88,27.14,94.57,27.14Z" transform="translate(-3.51 -6.16)"/><path class="cls-2" d="M54.89,8.39c-3.2,0-4.82,4.66-6.39,9.18s-3.14,9.05-6.27,9.05S37.51,22,36,17.56s-3.18-9.18-6.39-9.18V8.66c3.12,0,4.72,4.6,6.27,9.05s3.18,9.18,6.39,9.18,4.82-4.66,6.39-9.18,3.14-9.05,6.27-9.05V8.39Z" transform="translate(-3.51 -6.16)"/><path class="cls-2" d="M42.24,27.14c-3.31,0-5-4.74-6.55-9.32-1.52-4.38-3.09-8.91-6.1-8.91H29.4V8.14h0.18c3.32,0,5,4.74,6.55,9.32,1.52,4.38,3.09,8.91,6.1,8.91s4.58-4.53,6.1-8.91c1.59-4.58,3.24-9.32,6.55-9.32h0.18V8.91H54.89c-3,0-4.58,4.53-6.1,8.91C47.2,22.41,45.55,27.14,42.24,27.14Z" transform="translate(-3.51 -6.16)"/><path class="cls-2" d="M29.49,8.39c-3.2,0-4.82,4.66-6.39,9.18S20,26.62,16.84,26.62s-4.72-4.6-6.27-9.05S7.39,8.39,4.19,8.39V8.66c3.12,0,4.72,4.6,6.27,9.05s3.18,9.18,6.39,9.18,4.82-4.66,6.39-9.18,3.14-9.05,6.27-9.05V8.39Z" transform="translate(-3.51 -6.16)"/><path class="cls-2" d="M16.84,27.14c-3.31,0-5-4.74-6.55-9.32C8.77,13.44,7.2,8.91,4.19,8.91H4V8.14H4.19c3.32,0,5,4.74,6.55,9.32,1.52,4.38,3.09,8.91,6.1,8.91s4.58-4.53,6.1-8.91c1.59-4.58,3.24-9.32,6.55-9.32h0.18V8.91H29.49c-3,0-4.58,4.53-6.1,8.91C21.8,22.41,20.15,27.14,16.84,27.14Z" transform="translate(-3.51 -6.16)"/><rect class="cls-2" x="115.97" y="11.59" width="9.43" height="0.24"/><rect class="cls-2" x="115.72" y="11.34" width="9.93" height="0.74"/><path class="cls-2" d="M119.48,27.39a9.69,9.69,0,1,1,9.69-9.69h-0.75a8.94,8.94,0,1,0-2,5.58l0.59,0.47A9.65,9.65,0,0,1,119.48,27.39Z" transform="translate(-3.51 -6.16)"/><line class="cls-3" x1="75.07" y1="11.6" x2="75.07" y2="21.46"/><circle class="cls-4" cx="65.09" cy="10.82" r="9.97"/></svg>