<?xml version="1.0" encoding="iso-8859-1"?>
<!-- Generator: Adobe Illustrator 19.0.0, SVG Export Plug-In . SVG Version: 6.00 Build 0)  -->
<svg version="1.1" id="Capa_1" xmlns="http://www.w3.org/2000/svg" xmlns:xlink="http://www.w3.org/1999/xlink" x="0px" y="0px"
	 viewBox="0 0 512 512" style="enable-background:new 0 0 512 512;" xml:space="preserve">
<g>
	<g>
		<path d="M497.231,270.769c8.157,0,14.769-6.613,14.769-14.769s-6.613-14.769-14.769-14.769h-68.923V192h68.923
			c8.157,0,14.769-6.613,14.769-14.769s-6.613-14.769-14.769-14.769h-68.923V128c0-24.431-19.876-44.308-44.308-44.308h-34.462
			V14.769C349.538,6.613,342.926,0,334.769,0S320,6.613,320,14.769v68.923h-49.231V14.769C270.769,6.613,264.157,0,256,0
			s-14.769,6.613-14.769,14.769v68.923H192V14.769C192,6.613,185.387,0,177.231,0s-14.769,6.613-14.769,14.769v68.923H128
			c-24.431,0-44.308,19.876-44.308,44.308v34.462H14.769C6.613,162.462,0,169.074,0,177.231S6.613,192,14.769,192h68.923v49.231
			H14.769C6.613,241.231,0,247.843,0,256s6.613,14.769,14.769,14.769h68.923V320H14.769C6.613,320,0,326.613,0,334.769
			s6.613,14.769,14.769,14.769h68.923V384c0,24.431,19.876,44.308,44.308,44.308h34.462v68.923c0,8.157,6.613,14.769,14.769,14.769
			S192,505.387,192,497.231v-68.923h49.231v68.923c0,8.157,6.613,14.769,14.769,14.769s14.769-6.613,14.769-14.769v-68.923H320
			v68.923c0,8.157,6.613,14.769,14.769,14.769s14.769-6.613,14.769-14.769v-68.923H384c24.431,0,44.308-19.876,44.308-44.308
			v-34.462h68.923c8.157,0,14.769-6.613,14.769-14.769S505.387,320,497.231,320h-68.923v-49.231H497.231z M369.231,354.462
			c0,8.157-6.613,14.769-14.769,14.769H157.538c-8.157,0-14.769-6.613-14.769-14.769V157.538c0-8.157,6.613-14.769,14.769-14.769
			h196.923c8.157,0,14.769,6.613,14.769,14.769V354.462z"/>
	</g>
</g>
<g>
	<g>
		<path d="M172.308,172.308v167.385h167.385V172.308H172.308z M305.231,310.154h-29.538c-8.157,0-14.769-6.613-14.769-14.769
			c0-8.157,6.613-14.769,14.769-14.769h29.538c8.157,0,14.769,6.613,14.769,14.769C320,303.541,313.387,310.154,305.231,310.154z"/>
	</g>
</g>
<g>
</g>
<g>
</g>
<g>
</g>
<g>
</g>
<g>
</g>
<g>
</g>
<g>
</g>
<g>
</g>
<g>
</g>
<g>
</g>
<g>
</g>
<g>
</g>
<g>
</g>
<g>
</g>
<g>
</g>
</svg>
