<svg height="512pt" viewBox="-31 0 512 512.0003" width="512pt" xmlns="http://www.w3.org/2000/svg"><path d="m37.378906 1.191406c-7.628906-3.230468-16.429687.332032-19.660156 7.960938-10.765625 25.402344-17.71875 63.027344-17.71875 95.851562 0 32.824219 6.953125 70.449219 17.71875 95.851563 3.21875 7.605469 12.011719 11.199219 19.660156 7.960937 7.628906-3.234375 11.191406-12.035156 7.960938-19.664062-9.175782-21.65625-15.339844-55.472656-15.339844-84.148438 0-28.671875 6.164062-62.488281 15.339844-84.144531 3.230468-7.632813-.332032-16.433594-7.960938-19.667969zm0 0"/><path d="m412.617188 208.8125c7.640624 3.242188 16.4375-.347656 19.660156-7.957031 10.765625-25.402344 17.71875-63.027344 17.71875-95.851563 0-32.824218-6.953125-70.449218-17.71875-95.851562-3.230469-7.628906-12.03125-11.191406-19.660156-7.960938-7.628907 3.234375-11.191407 12.035156-7.960938 19.664063 9.175781 21.65625 15.339844 55.472656 15.339844 84.148437 0 28.671875-6.164063 62.488282-15.339844 84.144532-3.230469 7.632812.332031 16.433593 7.960938 19.664062zm0 0"/><path d="m92.65625 24.527344c-7.628906-3.234375-16.429688.332031-19.660156 7.960937-8.980469 21.1875-12.996094 51.6875-12.996094 72.515625s4.019531 51.328125 12.996094 72.515625c3.226562 7.617188 12.023437 11.199219 19.660156 7.960938 7.628906-3.230469 11.191406-12.035157 7.960938-19.664063-6.152344-14.519531-10.617188-40.097656-10.617188-60.8125s4.464844-46.289062 10.617188-60.8125c3.230468-7.628906-.332032-16.429687-7.960938-19.664062zm0 0"/><path d="m357.339844 185.480469c7.640625 3.238281 16.4375-.351563 19.660156-7.960938 8.976562-21.1875 12.996094-51.6875 12.996094-72.515625s-4.019532-51.328125-12.996094-72.515625c-3.230469-7.628906-12.035156-11.191406-19.660156-7.960937-7.628906 3.230468-11.191406 12.035156-7.960938 19.664062 6.152344 14.519532 10.617188 40.097656 10.617188 60.8125s-4.464844 46.289063-10.617188 60.8125c-3.230468 7.628906.332032 16.429688 7.960938 19.664063zm0 0"/><path d="m147.933594 47.855469c-7.628906-3.230469-16.433594.335937-19.664063 7.960937-5.371093 12.683594-8.269531 34.808594-8.269531 49.1875s2.898438 36.503906 8.269531 49.1875c3.226563 7.617188 12.023438 11.195313 19.664063 7.960938 7.628906-3.230469 11.191406-12.035156 7.960937-19.664063-3.476562-8.199219-5.894531-26.335937-5.894531-37.484375 0-11.148437 2.417969-29.285156 5.894531-37.484375 3.230469-7.628906-.332031-16.433593-7.960937-19.664062zm0 0"/><path d="m302.0625 162.152344c7.660156 3.242187 16.445312-.363282 19.664062-7.960938 5.371094-12.683594 8.269532-34.808594 8.269532-49.1875s-2.898438-36.503906-8.269532-49.1875c-3.230468-7.625-12.03125-11.191406-19.664062-7.960937-7.625 3.230469-11.191406 12.035156-7.960938 19.664062 3.476563 8.199219 5.898438 26.335938 5.898438 37.484375 0 11.144532-2.421875 29.28125-5.898438 37.484375-3.230468 7.628907.335938 16.429688 7.960938 19.664063zm0 0"/><path d="m15 512h120c8.28125 0 15-6.714844 15-15s-6.71875-15-15-15h-38.203125l23.332031-61h209.738282l23.332031 61h-38.199219c-8.285156 0-15 6.714844-15 15s6.714844 15 15 15h119.996094c8.285156 0 15-6.714844 15-15s-6.714844-15-15-15h-49.675782c-.59375-1.558594-63.644531-166.394531-131.121093-342.796875 9.660156-8.261719 15.800781-20.523437 15.800781-34.199219 0-24.8125-20.1875-45-45-45s-45 20.1875-45 45c0 13.675782 6.140625 25.9375 15.800781 34.199219-.042969.105469-121.324219 316.96875-131.121093 342.796875h-49.679688c-8.285156 0-15 6.714844-15 15s6.714844 15 15 15zm147.683594-202.253906 34.011718 21.253906-55.382812 34.613281zm26.675781-69.742188h71.277344l15.753906 41.1875-51.394531 32.121094-51.390625-32.121094zm119.324219 125.609375-55.382813-34.613281 34.011719-21.253906zm-15.988282 25.386719h-135.394531l67.699219-42.308594zm-67.699218-300.996094c8.273437 0 15 6.730469 15 15 0 8.269532-6.726563 15-15 15-8.269532 0-14.996094-6.730468-14.996094-15 0-8.269531 6.726562-15 14.996094-15zm0 60c.40625 0 .804687-.019531 1.203125-.03125l22.960937 60.03125h-48.324218l22.960937-60.03125c.402344.011719.796875.03125 1.199219.03125zm0 0"/></svg>